<svg width="122" height="51" viewBox="0 0 122 51" fill="none" xmlns="http://www.w3.org/2000/svg">
<path d="M0 5.76461C0 2.5809 2.58091 0 5.76462 0H116.058C119.242 0 121.823 2.58091 121.823 5.76462V44.7646C121.823 47.9483 119.242 50.5292 116.058 50.5292H5.76462C2.58091 50.5292 0 47.9483 0 44.7646V5.76461Z" fill="black" fill-opacity="0.6"/>
<path d="M23.5439 34.7637L24.3916 29.6504H20.126L19.2783 34.7637H16.5713L17.4189 29.6504H14.6299L15.0674 26.9707H17.8564L18.54 22.7598H15.7783L16.2158 20.0801H19.0049L19.8252 14.9668H22.5322L21.7119 20.0801H25.9775L26.7979 14.9668H29.4775L28.6572 20.0801H31.4463L30.9814 22.7598H28.1924L27.5088 26.9707H30.2979L29.8604 29.6504H27.0713L26.2236 34.7637H23.5439ZM20.5635 26.9707H24.8291L25.5127 22.7598H21.2471L20.5635 26.9707ZM39.9502 34.7637V32.1934L46.9502 25.4395C48.9463 23.4434 49.9854 22.2676 49.9854 20.5996C49.9854 18.7676 48.5361 17.5918 46.5947 17.5918C44.5439 17.5918 43.2314 18.877 43.2588 20.873H39.8682C39.8408 17.127 42.6572 14.6934 46.6221 14.6934C50.6689 14.6934 53.4033 17.0996 53.4033 20.4355C53.4033 22.6777 52.3096 24.4824 48.4268 28.1465L44.8994 31.6465V31.7832H53.7041V34.7637H39.9502ZM64.1221 35.0371C59.3643 35.0371 56.5205 31.3457 56.5205 24.8652C56.5205 18.4121 59.3643 14.6934 64.1221 14.6934C68.8525 14.6934 71.7236 18.4121 71.7236 24.8652C71.7236 31.3457 68.8799 35.0371 64.1221 35.0371ZM64.1221 32.0566C66.6104 32.0566 68.1416 29.623 68.1416 24.8652C68.1416 20.1348 66.583 17.6465 64.1221 17.6465C61.6611 17.6465 60.1025 20.1348 60.1025 24.8652C60.1025 29.623 61.6338 32.0566 64.1221 32.0566ZM74.7041 34.7637V32.1934L81.7041 25.4395C83.7002 23.4434 84.7393 22.2676 84.7393 20.5996C84.7393 18.7676 83.29 17.5918 81.3486 17.5918C79.2979 17.5918 77.9854 18.877 78.0127 20.873H74.6221C74.5947 17.127 77.4111 14.6934 81.376 14.6934C85.4229 14.6934 88.1572 17.0996 88.1572 20.4355C88.1572 22.6777 87.0635 24.4824 83.1807 28.1465L79.6533 31.6465V31.7832H88.458V34.7637H74.7041ZM91.5752 34.7637V32.1934L98.5752 25.4395C100.571 23.4434 101.61 22.2676 101.61 20.5996C101.61 18.7676 100.161 17.5918 98.2197 17.5918C96.1689 17.5918 94.8564 18.877 94.8838 20.873H91.4932C91.4658 17.127 94.2822 14.6934 98.2471 14.6934C102.294 14.6934 105.028 17.0996 105.028 20.4355C105.028 22.6777 103.935 24.4824 100.052 28.1465L96.5244 31.6465V31.7832H105.329V34.7637H91.5752Z" fill="white"/>
</svg>
