<svg width="341" height="65" viewBox="0 0 341 65" fill="none" xmlns="http://www.w3.org/2000/svg">
<path d="M169.176 2.05963C169.736 1.12672 171.088 1.12672 171.647 2.05963L179.059 14.4116L161.765 14.4115L169.176 2.05963Z" fill="#EDE4AD"/>
<path d="M0 20.1767C0 16.993 2.58091 14.4121 5.76462 14.4121H335.058C338.242 14.4121 340.823 16.993 340.823 20.1767V59.1767C340.823 62.3604 338.242 64.9413 335.058 64.9413H5.76462C2.58091 64.9413 0 62.3604 0 59.1767V20.1767Z" fill="#EDE4AD"/>
<path d="M24.5557 33.918C24.5557 37.9648 26.9346 42.2305 30.9268 43.8984L29.2588 46.3047C26.333 45.0469 24.2002 42.4492 23.0791 39.3047C21.9307 42.6953 19.7705 45.5391 16.8721 46.9062L15.1221 44.5273C19.0322 42.7227 21.4658 38.1289 21.4658 33.918V31.8398H16.0244V29.3242H29.9697V31.8398H24.5557V33.918ZM35.7939 26.8906V51.6094H32.7314V26.8906H35.7939ZM61.9893 40.8086V43.3242H52.1455V51.6094H49.1377V43.3242H39.4033V40.8086H61.9893ZM50.6416 27.7656C55.8916 27.793 59.5557 29.9258 59.5557 33.3164C59.5557 36.6797 55.8916 38.7852 50.6416 38.7852C45.3643 38.7852 41.7549 36.6797 41.7822 33.3164C41.7549 29.9258 45.3643 27.793 50.6416 27.7656ZM50.6416 30.2266C47.1416 30.2266 44.8721 31.375 44.8994 33.3164C44.8721 35.2305 47.1416 36.3789 50.6416 36.3789C54.1416 36.3789 56.4111 35.2305 56.4111 33.3164C56.4111 31.375 54.1416 30.2266 50.6416 30.2266ZM71.6416 28.6133C75.5518 28.5859 78.4229 31.0742 78.4502 34.5742C78.4229 38.1016 75.5518 40.5625 71.6416 40.5625C67.7588 40.5625 64.8604 38.1016 64.8604 34.5742C64.8604 31.0742 67.7588 28.5859 71.6416 28.6133ZM71.6416 31.2383C69.4814 31.2383 67.8682 32.5234 67.8682 34.5742C67.8682 36.6523 69.4814 37.9102 71.6416 37.9102C73.8291 37.9102 75.4697 36.6523 75.4697 34.5742C75.4697 32.5234 73.8291 31.2383 71.6416 31.2383ZM84.2197 26.8906V51.6367H81.1846V26.8906H84.2197ZM63.7393 43.9805C68.1963 43.9805 74.376 43.9258 79.708 43.1602L79.9541 45.375C74.4033 46.4414 68.4697 46.4688 64.1221 46.4688L63.7393 43.9805ZM117.06 46.0859V48.5469H94.4736V46.0859H104.153V40.3711H107.161V46.0859H117.06ZM107.243 30.1992C107.243 33.9453 110.989 37.6367 116.185 38.457L114.872 40.9727C110.688 40.1797 107.271 37.7871 105.63 34.5469C103.989 37.7734 100.599 40.207 96.4424 40.9727L95.1299 38.457C100.298 37.6367 103.989 33.918 104.017 30.1992V28.3945H107.243V30.1992ZM139.399 26.918V45.6211H136.337V43.4609H131.497V41.3281H136.337V26.918H139.399ZM139.974 48.6562V51.1172H121.845V43.8164H124.88V48.6562H139.974ZM118.563 38.0195C123.13 37.9922 129.255 37.9375 134.505 37.2812L134.669 39.4688C132.632 39.8105 130.526 40.043 128.435 40.1797V44.9375H125.399V40.3438C123.089 40.4395 120.888 40.4531 118.946 40.4531L118.563 38.0195ZM126.63 27.8203C130.239 27.8203 132.755 29.5977 132.782 32.1953C132.755 34.8477 130.239 36.543 126.63 36.543C122.966 36.543 120.45 34.8477 120.45 32.1953C120.45 29.5977 122.966 27.8203 126.63 27.8203ZM126.63 30.0625C124.661 30.0625 123.321 30.8555 123.321 32.1953C123.321 33.5352 124.661 34.3281 126.63 34.3281C128.517 34.3281 129.856 33.5352 129.884 32.1953C129.856 30.8555 128.517 30.0625 126.63 30.0625ZM163.435 26.8906V51.6367H160.372V26.8906H163.435ZM150.118 28.6953C153.837 28.6953 156.544 32.0859 156.571 37.418C156.544 42.8047 153.837 46.168 150.118 46.168C146.372 46.168 143.665 42.8047 143.665 37.418C143.665 32.0859 146.372 28.6953 150.118 28.6953ZM150.118 31.4297C148.013 31.4297 146.591 33.6445 146.591 37.418C146.591 41.2188 148.013 43.4336 150.118 43.4336C152.196 43.4336 153.618 41.2188 153.618 37.418C153.618 33.6445 152.196 31.4297 150.118 31.4297ZM194.278 26.8906V51.6367H191.216V26.8906H194.278ZM180.962 28.6953C184.681 28.6953 187.388 32.0859 187.415 37.418C187.388 42.8047 184.681 46.168 180.962 46.168C177.216 46.168 174.509 42.8047 174.509 37.418C174.509 32.0859 177.216 28.6953 180.962 28.6953ZM180.962 31.4297C178.856 31.4297 177.435 33.6445 177.435 37.418C177.435 41.2188 178.856 43.4336 180.962 43.4336C183.04 43.4336 184.462 41.2188 184.462 37.418C184.462 33.6445 183.04 31.4297 180.962 31.4297ZM217.849 27.7383V34.7656H203.657V37.2266H218.396V39.6602H200.595V32.4688H214.731V30.1992H200.54V27.7383H217.849ZM220.474 41.7656V44.1992H210.657V51.6367H207.622V44.1992H197.888V41.7656H220.474ZM228.868 28.6953C232.218 28.6953 234.692 31.4844 235.13 35.9961H239.833V26.8906H242.841V51.6367H239.833V38.457H235.157C234.829 43.2285 232.313 46.168 228.868 46.168C225.149 46.168 222.524 42.8047 222.524 37.418C222.524 32.0859 225.149 28.6953 228.868 28.6953ZM228.868 31.4297C226.817 31.4297 225.423 33.6445 225.45 37.418C225.423 41.2188 226.817 43.4336 228.868 43.4336C230.919 43.4336 232.286 41.2188 232.313 37.418C232.286 33.6445 230.919 31.4297 228.868 31.4297ZM255.638 33.918C255.638 37.9648 258.017 42.2305 262.009 43.8984L260.341 46.3047C257.415 45.0469 255.282 42.4492 254.161 39.3047C253.013 42.6953 250.853 45.5391 247.954 46.9062L246.204 44.5273C250.114 42.7227 252.548 38.1289 252.548 33.918V31.8398H247.106V29.3242H261.052V31.8398H255.638V33.918ZM266.876 26.8906V51.6094H263.813V26.8906H266.876ZM291.157 26.8906V51.6094H288.095V26.8906H291.157ZM283.774 29.5156C283.774 36.8711 280.931 43.1328 272.263 47.2344L270.677 44.8008C277.144 41.7246 280.151 37.541 280.685 31.9219H271.935V29.5156H283.774ZM317.271 38.1016V40.3984H294.685V38.1016H317.271ZM314.536 41.875V47.5078H300.372V49.2305H315.274V51.3359H297.337V45.5391H311.528V44.0078H297.31V41.875H314.536ZM314.481 27.4375V33.0156H300.563V34.6289H314.919V36.707H297.556V31.0469H311.446V29.543H297.474V27.4375H314.481ZM323.997 29.3789L323.696 43.3516H320.606L320.278 29.3789H323.997ZM322.165 49.3945C320.989 49.3945 320.032 48.4375 320.032 47.2617C320.032 46.1133 320.989 45.1562 322.165 45.1562C323.286 45.1562 324.271 46.1133 324.271 47.2617C324.271 48.4375 323.286 49.3945 322.165 49.3945Z" fill="#720505"/>
</svg>
