<svg width="308" height="51" viewBox="0 0 308 51" fill="none" xmlns="http://www.w3.org/2000/svg">
<path d="M0 5.76461C0 2.5809 2.58091 0 5.76462 0H302.058C305.242 0 307.823 2.58091 307.823 5.76462V44.7646C307.823 47.9483 305.242 50.5292 302.058 50.5292H5.76462C2.58091 50.5292 0 47.9483 0 44.7646V5.76461Z" fill="black"/>
<path d="M24.0635 18.4121C24.0361 22.8145 26.251 27.2988 30.0791 29.1309L28.2197 31.5645C25.54 30.2109 23.6123 27.5996 22.5596 24.4551C21.4795 27.8184 19.4561 30.6074 16.626 32.0293L14.7666 29.5957C18.7314 27.709 21.001 22.9785 21.0283 18.4121V14.4746H24.0635V18.4121ZM34.5908 12.4785V22.1582H38.3916V24.7559H34.5908V37.1973H31.5557V12.4785H34.5908ZM58.9268 12.5059V18.4121H62.3994V20.9277H58.9268V27.3535H55.8916V12.5059H58.9268ZM51.6533 14.0098V21.1191H43.4229V23.7168C47.6201 23.6895 50.4912 23.5391 53.8682 22.9785L54.1963 25.4121C50.5049 26.0684 47.3057 26.2324 42.4111 26.2051H40.3877V18.8223H48.6729V16.416H40.3604V14.0098H51.6533ZM50.8604 27.9004C55.9463 27.9277 59.1455 29.6504 59.1729 32.5762C59.1455 35.4746 55.9463 37.1426 50.8604 37.1426C45.665 37.1426 42.4932 35.4746 42.4932 32.5762C42.4932 29.6504 45.665 27.9277 50.8604 27.9004ZM50.8604 30.2793C47.415 30.2793 45.4463 31.0996 45.4736 32.5762C45.4463 34.0527 47.415 34.8457 50.8604 34.8457C54.2783 34.8457 56.165 34.0527 56.165 32.5762C56.165 31.0996 54.2783 30.2793 50.8604 30.2793ZM75.6885 16.416V18.8496H63.5752V16.416H68.1689V13.1895H71.1768V16.416H75.6885ZM69.6729 20.1621C72.8174 20.1621 75.0596 22.541 75.0596 25.9043C75.0596 29.3223 72.8174 31.7285 69.6729 31.7285C66.5557 31.7285 64.2588 29.3223 64.2861 25.9043C64.2588 22.541 66.5557 20.1621 69.6729 20.1621ZM69.6729 22.6777C68.0596 22.6777 66.9385 23.9629 66.9658 25.9043C66.9385 27.9004 68.0596 29.1582 69.6729 29.1309C71.2588 29.1582 72.3799 27.9004 72.3799 25.9043C72.3799 23.9629 71.2588 22.6777 69.6729 22.6777ZM84.876 12.4785V37.1973H81.9775V25.1113H79.5713V36.0762H76.7275V12.998H79.5713V22.6504H81.9775V12.4785H84.876ZM102.185 17.0723C102.185 19.752 103.743 22.4316 106.997 23.6621L105.384 25.9863C103.183 25.1387 101.651 23.5664 100.763 21.6387C99.8604 23.8535 98.2471 25.7402 95.8955 26.7246L94.2549 24.4004C97.6455 22.8965 99.2314 19.8066 99.2588 17.0723V14.0098H102.185V17.0723ZM115.61 12.5059V27.6543H112.712V21.2285H110.251V26.8887H107.407V12.9707H110.251V18.7402H112.712V12.5059H115.61ZM107.271 28.0645C112.438 28.0645 115.72 29.7598 115.747 32.6035C115.72 35.4473 112.438 37.1699 107.271 37.1699C102.048 37.1699 98.7939 35.4473 98.7939 32.6035C98.7939 29.7598 102.048 28.0645 107.271 28.0645ZM107.271 30.3613C103.853 30.3613 101.829 31.1543 101.829 32.6035C101.829 34.0801 103.853 34.8457 107.271 34.8457C110.661 34.8457 112.685 34.0801 112.685 32.6035C112.685 31.1543 110.661 30.3613 107.271 30.3613ZM125.673 13.2715C129.419 13.2715 132.208 15.5957 132.235 18.8496C132.208 22.1309 129.419 24.4277 125.673 24.4277C121.899 24.4277 119.11 22.1309 119.11 18.8496C119.11 15.5957 121.899 13.2715 125.673 13.2715ZM125.673 15.7871C123.595 15.7871 122.063 16.9629 122.063 18.8496C122.063 20.7637 123.595 21.9668 125.673 21.9668C127.751 21.9668 129.282 20.7637 129.282 18.8496C129.282 16.9629 127.751 15.7871 125.673 15.7871ZM139.263 12.4785V24.9746H136.2V12.4785H139.263ZM139.263 26.041V32.4941H125.892V34.4902H140.001V36.8965H122.911V30.252H136.228V28.4199H122.856V26.041H139.263ZM169.013 12.4785V17.8105H172.458V20.3262H169.013V24.9199H165.978V12.4785H169.013ZM162.067 14.0645V24.2637H150.364V14.0645H162.067ZM153.345 16.4434V21.8848H159.087V16.4434H153.345ZM154.849 27.0254V34.0254C156.271 33.957 157.733 33.752 159.142 33.2871L159.579 35.666C157.392 36.4316 155.286 36.5137 153.181 36.5137H151.868V27.0254H154.849ZM171.173 27.2988V29.4863H158.731V27.2988H163.489V25.3574H166.47V27.2988H171.173ZM164.938 30.2246C167.728 30.2246 169.669 31.5371 169.669 33.6973C169.669 35.8027 167.728 37.1426 164.938 37.1426C162.122 37.1426 160.208 35.8027 160.235 33.6973C160.208 31.5371 162.122 30.2246 164.938 30.2246ZM164.938 32.3027C163.763 32.3027 162.915 32.7949 162.942 33.6973C162.915 34.5996 163.763 35.0918 164.938 35.0918C166.087 35.0918 166.935 34.5996 166.935 33.6973C166.935 32.7949 166.087 32.3027 164.938 32.3027ZM194.278 12.4785V37.2246H191.216V12.4785H194.278ZM180.962 14.2832C184.681 14.2832 187.388 17.6738 187.415 23.0059C187.388 28.3926 184.681 31.7559 180.962 31.7559C177.216 31.7559 174.509 28.3926 174.509 23.0059C174.509 17.6738 177.216 14.2832 180.962 14.2832ZM180.962 17.0176C178.856 17.0176 177.435 19.2324 177.435 23.0059C177.435 26.8066 178.856 29.0215 180.962 29.0215C183.04 29.0215 184.462 26.8066 184.462 23.0059C184.462 19.2324 183.04 17.0176 180.962 17.0176ZM227.091 24.7285V27.1621H217.302V29.5137H224.329V37.1426H221.294V31.9473H207.048V29.5137H214.294V27.1621H204.56V24.7285H227.091ZM217.302 12.4512V14.8027H224.876V17.1816H217.521C217.849 19.2871 220.747 21.0098 225.97 21.3926L225.013 23.6895C220.61 23.3203 217.343 21.9531 215.798 19.8066C214.253 21.9531 210.972 23.3203 206.583 23.6895L205.626 21.3926C210.794 21.0098 213.72 19.2871 214.075 17.1816H206.774V14.8027H214.294V12.4512H217.302ZM248.118 12.4785V22.3223H251.919V24.8379H248.118V37.1973H245.11V12.4785H248.118ZM243.196 16.2793V18.7129H228.622V16.2793H234.474V12.834H237.509V16.2793H243.196ZM236.005 20.3262C239.56 20.3262 242.212 22.7324 242.212 26.1504C242.212 29.5684 239.56 31.9473 236.005 31.9473C232.396 31.9473 229.743 29.5684 229.771 26.1504C229.743 22.7324 232.396 20.3262 236.005 20.3262ZM236.005 22.8145C234.063 22.8145 232.669 24.127 232.669 26.1504C232.669 28.1738 234.063 29.459 236.005 29.4316C237.892 29.459 239.286 28.1738 239.313 26.1504C239.286 24.127 237.892 22.8145 236.005 22.8145ZM265.017 16.416V18.8496H252.903V16.416H257.497V13.1895H260.505V16.416H265.017ZM259.001 20.1621C262.146 20.1621 264.388 22.541 264.388 25.9043C264.388 29.3223 262.146 31.7285 259.001 31.7285C255.884 31.7285 253.587 29.3223 253.614 25.9043C253.587 22.541 255.884 20.1621 259.001 20.1621ZM259.001 22.6777C257.388 22.6777 256.267 23.9629 256.294 25.9043C256.267 27.9004 257.388 29.1582 259.001 29.1309C260.587 29.1582 261.708 27.9004 261.708 25.9043C261.708 23.9629 260.587 22.6777 259.001 22.6777ZM274.204 12.4785V37.1973H271.306V25.1113H268.899V36.0762H266.056V12.998H268.899V22.6504H271.306V12.4785H274.204ZM282.243 14.9668L281.942 28.9395H278.853L278.524 14.9668H282.243ZM280.411 34.9824C279.235 34.9824 278.278 34.0254 278.278 32.8496C278.278 31.7012 279.235 30.7441 280.411 30.7441C281.532 30.7441 282.517 31.7012 282.517 32.8496C282.517 34.0254 281.532 34.9824 280.411 34.9824ZM290.364 14.9668L290.063 28.9395H286.974L286.646 14.9668H290.364ZM288.532 34.9824C287.356 34.9824 286.399 34.0254 286.399 32.8496C286.399 31.7012 287.356 30.7441 288.532 30.7441C289.653 30.7441 290.638 31.7012 290.638 32.8496C290.638 34.0254 289.653 34.9824 288.532 34.9824Z" fill="white"/>
</svg>
