<svg width="189" height="65" viewBox="0 0 189 65" fill="none" xmlns="http://www.w3.org/2000/svg">
<path d="M93.1748 2.05963C93.7346 1.12672 95.0866 1.12672 95.6464 2.05963L103.058 14.4116L85.7637 14.4115L93.1748 2.05963Z" fill="#7DBDAF"/>
<path d="M0 20.1767C0 16.993 2.58091 14.4121 5.76462 14.4121H183.058C186.242 14.4121 188.823 16.993 188.823 20.1767V59.1767C188.823 62.3604 186.242 64.9413 183.058 64.9413H5.76462C2.58091 64.9413 0 62.3604 0 59.1767V20.1767Z" fill="#7DBDAF"/>
<path d="M28.084 29.3242C28.084 36.7891 26.0332 43.1875 16.9277 47.7266L15.2598 45.4297C19.5391 43.3105 22.082 40.8496 23.5176 37.9102L15.834 38.6484L15.4512 36.0234L24.4473 35.4492C24.7617 34.3008 24.9531 33.084 25.0488 31.7852H16.7363V29.3242H28.084ZM34.5918 26.8906V36.5703H38.2559V39.0586H34.5918V51.5547H31.5566V26.8906H34.5918ZM59.502 38.4844V40.918H42.166V29.0508H59.3105V31.5117H45.1738V38.4844H59.502ZM62.0176 45.9492V48.4648H39.4316V45.9492H62.0176ZM86.1895 38.1016V40.3984H63.6035V38.1016H86.1895ZM83.4551 41.875V47.5078H69.291V49.2305H84.1934V51.3359H66.2559V45.5391H80.4473V44.0078H66.2285V41.875H83.4551ZM83.4004 27.4375V33.0156H69.4824V34.6289H83.8379V36.707H66.4746V31.0469H80.3652V29.543H66.3926V27.4375H83.4004ZM114.436 32.2227V34.6562H97.373V27.2188H100.354V32.2227H114.436ZM117.033 36.3242V38.7852H107.189V40.9453H114.271V47.0977H100.217V49.0391H115.092V51.3906H97.1543V44.9648H111.264V43.2422H97.127V40.9453H104.209V38.7852H94.4473V36.3242H117.033ZM139.373 26.8906V51.6367H136.338V38.4844H132.1V35.9961H136.338V26.8906H139.373ZM130.678 29.0508V38.1016H122.584V43.2969C126.248 43.2832 129.215 43.1602 132.537 42.5586L132.783 45.0469C129.092 45.7031 125.811 45.8398 121.545 45.8398H119.576V35.6406H127.697V31.5117H119.494V29.0508H130.678ZM147.139 28.8867V32.1953H153.564V28.8867H156.6V40.1797H151.896V44.1445C153.92 44.0352 155.957 43.8848 157.857 43.625L158.076 45.8672C152.908 46.7695 147.248 46.7969 143.01 46.8242L142.572 44.3086C144.445 44.2949 146.605 44.2949 148.861 44.2266V40.1797H144.131V28.8867H147.139ZM147.139 37.7461H153.564V34.5195H147.139V37.7461ZM162.314 26.8906V36.9258H165.896V39.4688H162.314V51.6094H159.279V26.8906H162.314ZM172.158 29.3789L171.857 43.3516H168.768L168.439 29.3789H172.158ZM170.326 49.3945C169.15 49.3945 168.193 48.4375 168.193 47.2617C168.193 46.1133 169.15 45.1562 170.326 45.1562C171.447 45.1562 172.432 46.1133 172.432 47.2617C172.432 48.4375 171.447 49.3945 170.326 49.3945Z" fill="#511111"/>
</svg>
